<?xml version="1.0" encoding="UTF-8" standalone="no"?>
<!-- Created with Inkscape (http://www.inkscape.org/) -->

<svg
   width="81.118561mm"
   height="64.467682mm"
   viewBox="0 0 81.118561 64.467682"
   version="1.1"
   id="svg1"
   xml:space="preserve"
   xmlns="http://www.w3.org/2000/svg"
   xmlns:svg="http://www.w3.org/2000/svg"><defs
     id="defs1" /><g
     id="layer1"
     transform="translate(83.956018,-119.47126)"><g
       id="g6"
       transform="translate(-148.39674,-109.28442)"><rect
         style="fill:#28220b;stroke:#000000;stroke-width:0.0999996;stroke-linecap:round;stroke-linejoin:round;stroke-dasharray:none;stroke-opacity:1"
         id="rect4"
         width="56.062927"
         height="4.0370679"
         x="76.968536"
         y="289.13629"
         rx="2.0858648"
         ry="2.6003568" /><path
         id="path6"
         clip-path="none"
         style="fill:#28220b;stroke-width:0;stroke-linecap:round;stroke-linejoin:round;stroke-dasharray:none"
         d="m 72.581824,228.75567 c -4.509984,0 -8.141105,3.70082 -8.141105,8.29769 v 36.28306 c 0,4.59687 3.631121,8.29768 8.141105,8.29768 h 64.836346 c 4.50998,0 8.14111,-3.70081 8.14111,-8.29768 v -36.28306 c 0,-4.59687 -3.63113,-8.29769 -8.14111,-8.29769 z m -2.204516,4.9103 h 69.245382 c 1.17411,0 2.11925,0.96996 2.11925,2.17454 v 38.70875 c 0,1.20458 -0.94514,2.17403 -2.11925,2.17403 H 70.377308 c -1.174111,0 -2.119251,-0.96945 -2.119251,-2.17403 v -38.70875 c 0,-1.20458 0.94514,-2.17454 2.119251,-2.17454 z" /></g></g></svg>
